<svg width="72" height="42" viewBox="0 0 72 42" fill="none" xmlns="http://www.w3.org/2000/svg">
<path d="M57.9785 20.9448C65.7714 17.5182 70.86 12.3722 71.1373 6.66342C71.1373 6.66342 69.0799 5.07925 62.4372 2.63629C56.6041 0.491 52.154 1.24467e-05 52.154 1.24467e-05L52.1745 12.7195C52.1745 14.6202 51.4111 16.5602 49.97 18.2778C45.5609 17.2137 40.688 16.6166 35.5772 16.6149H35.5738C30.4595 16.6166 25.5815 17.2154 21.1673 18.2812C19.7261 16.5636 18.961 14.6219 18.961 12.7195L18.9799 1.24467e-05C18.9799 1.24467e-05 14.5331 0.491 8.69661 2.63629C2.05391 5.07925 0 6.66342 0 6.66342C0.275567 12.3739 5.36585 17.5216 13.1673 20.9482C5.37269 24.3749 0.284126 29.5209 0.0085598 35.228C0.0085598 35.228 2.06418 36.8138 8.70688 39.2551C14.5417 41.4004 18.9901 41.8914 18.9901 41.8914L18.9696 29.1719C18.9696 27.2712 19.733 25.3295 21.1758 23.6136C25.5849 24.6794 30.4561 25.2748 35.5669 25.2748C40.6829 25.2748 45.5643 24.6777 49.9768 23.6085C51.418 25.3261 52.1814 27.2712 52.1814 29.1719L52.1642 41.8914C52.1642 41.8914 56.6127 41.4004 62.4475 39.2551C69.0902 36.8138 71.1458 35.228 71.1458 35.228C70.8685 29.5174 65.7783 24.3698 57.9785 20.9448ZM35.5703 23.8069H35.5652L35.4197 23.8035C30.8053 23.8035 27.0432 22.6744 24.2841 20.9482C27.0432 19.2187 30.807 18.0879 35.43 18.0879L35.5721 18.0861H35.5789L35.7244 18.0879C40.3406 18.0879 44.1009 19.217 46.86 20.9431C44.1009 22.671 40.3371 23.8035 35.7158 23.8035" fill="black"/>
</svg>
